<svg
    width="7000"
    height="174"
    viewBox="0 0 1440 174"
    fill="none"
    xmlns="http://www.w3.org/2000/svg"
>
    <path
        fill-rule="evenodd"
        clip-rule="evenodd"
        d="M2132.81 143.989C2157.16 134.055 2168.85 106.258 2158.92 81.904C2148.98 57.5498 2121.19 45.8604 2096.83 55.7951C2072.48 65.7298 2060.79 93.5264 2070.72 117.881C2080.66 142.235 2108.46 153.924 2132.81 143.989ZM2106.15 98.729L2100.95 104.826C2100.81 104.987 2100.92 105.236 2101.13 105.243L2108.9 105.508C2109 105.512 2109.09 105.573 2109.12 105.666L2110.42 108.843C2110.49 109.015 2110.36 109.201 2110.17 109.191L2096.93 108.523C2096.84 108.518 2096.75 108.456 2096.71 108.365L2095.82 106.188C2095.79 106.102 2095.8 106.005 2095.86 105.933L2104.47 95.2486C2104.59 95.0985 2104.83 95.1333 2104.9 95.3118L2106.19 98.4692C2106.23 98.5568 2106.21 98.657 2106.15 98.729ZM2128.43 93.6145L2120.45 92.8941C2120.36 92.8856 2120.28 92.8252 2120.24 92.7376L2118.95 89.5802C2118.88 89.4017 2119.02 89.2105 2119.22 89.2332L2132.84 90.8481C2132.93 90.859 2133.01 90.9186 2133.05 91.0039L2133.93 93.1817C2133.97 93.2726 2133.95 93.3768 2133.89 93.449L2124.89 103.187C2124.77 103.324 2124.54 103.283 2124.47 103.111L2123.18 99.9341C2123.14 99.8417 2123.16 99.7359 2123.23 99.6637L2128.59 94.0414C2128.74 93.8881 2128.64 93.6336 2128.43 93.6145ZM2112.43 90.0503L2115.63 88.7456C2115.79 88.6792 2115.97 88.7948 2115.98 88.9705L2116.75 109.388C2116.75 109.494 2116.69 109.592 2116.59 109.632L2113.39 110.937C2113.23 111.003 2113.05 110.887 2113.04 110.712L2112.28 90.2942C2112.27 90.1879 2112.33 90.0905 2112.43 90.0503Z"
        fill="#A2B87E"
    />
</svg>