<svg
    width="7000"
    height="174"
    viewBox="0 0 1440 174"
    fill="none"
    xmlns="http://www.w3.org/2000/svg"
>
    <path
        fill-rule="evenodd"
        clip-rule="evenodd"
        d="M3606.97 65.0453C3583.34 76.8409 3573.75 105.558 3585.55 129.186C3597.34 152.815 3626.06 162.407 3649.69 150.612C3673.31 138.816 3682.91 110.099 3671.11 86.4706C3659.32 62.8421 3630.6 53.2497 3606.97 65.0453ZM3605.81 113.262C3605.47 113.352 3605.26 113.705 3605.35 114.051L3607.34 121.781C3607.43 122.128 3607.78 122.336 3608.13 122.247L3615.86 120.257C3616.2 120.168 3616.41 119.814 3616.32 119.468L3614.33 111.738C3614.24 111.391 3613.89 111.183 3613.54 111.272L3605.81 113.262ZM3641.54 104.733C3641.45 104.387 3641.66 104.033 3642 103.944L3649.73 101.954C3650.08 101.865 3650.43 102.073 3650.52 102.42L3652.51 110.15C3652.6 110.496 3652.39 110.849 3652.05 110.939L3644.32 112.929C3643.97 113.018 3643.62 112.81 3643.53 112.463L3641.54 104.733ZM3617.11 119.934C3616.77 120.023 3616.56 120.376 3616.65 120.723L3618.64 128.453C3618.73 128.799 3619.08 129.008 3619.43 128.919L3645.38 122.237C3645.72 122.148 3645.93 121.795 3645.84 121.448L3643.85 113.718C3643.76 113.371 3643.41 113.163 3643.06 113.252L3617.11 119.934ZM3609.6 93.3535C3609.51 93.0069 3609.72 92.6537 3610.07 92.5645L3617.8 90.5741C3618.14 90.4849 3618.5 90.6935 3618.59 91.04L3620.58 98.7701C3620.67 99.1166 3620.46 99.4698 3620.11 99.559L3612.38 101.549C3612.03 101.639 3611.68 101.43 3611.59 101.084L3609.6 93.3535ZM3628.29 87.8733C3627.94 87.9625 3627.73 88.3158 3627.82 88.6623L3629.81 96.3923C3629.9 96.7389 3630.25 96.9474 3630.6 96.8582L3638.33 94.8679C3638.68 94.7786 3638.89 94.4254 3638.8 94.0789L3636.81 86.3488C3636.72 86.0023 3636.36 85.7937 3636.02 85.8829L3628.29 87.8733Z"
        fill="#262625"
    />
</svg>